# 3ds Max Wavefront OBJ Exporter v0.99 - (c)2007 guruware
# File Created: 23.11.2023 18:09:48

mtllib Bookself.mtl

#
# object bookself
#

v  9.3433 -0.1195 -5.2323
v  9.3452 -0.1166 -5.5392
v  10.3478 -0.1166 -5.5392
v  10.3497 -0.1195 -5.2323
v  9.3433 1.6824 -5.2319
v  10.3497 1.6824 -5.2319
v  10.3478 1.6795 -5.5389
v  9.3452 1.6795 -5.5389
v  10.3497 -0.0159 -5.2319
v  10.3478 -0.0130 -5.5389
v  9.3452 -0.0130 -5.5389
v  9.3433 -0.0159 -5.2319
v  10.3394 0.0000 -5.5314
v  9.3535 0.0000 -5.5314
v  9.3535 0.0000 -5.2319
v  10.3394 0.0000 -5.2319
v  10.3394 1.6665 -5.5314
v  10.3394 1.6665 -5.2319
v  9.3535 1.6665 -5.2319
v  9.3535 1.6665 -5.5314
v  10.3394 0.9774 -5.5314
v  10.3394 0.6891 -5.5314
v  10.3394 0.6891 -5.2319
v  10.3394 0.9774 -5.2319
v  9.3535 1.3557 -5.5314
v  9.3535 1.3332 -5.5314
v  9.3535 1.3107 -5.5314
v  9.3535 1.0224 -5.5314
v  9.3535 0.9999 -5.5314
v  9.3535 0.9774 -5.5314
v  9.3535 0.6891 -5.5314
v  9.3535 0.6666 -5.5314
v  9.3535 0.6441 -5.5314
v  9.3535 0.3558 -5.5314
v  9.3535 0.3333 -5.5314
v  9.3535 0.3108 -5.5314
v  10.3394 0.3108 -5.5314
v  10.3394 0.3333 -5.5314
v  10.3394 0.3558 -5.5314
v  10.3394 0.6441 -5.5314
v  10.3394 0.6666 -5.5314
v  10.3394 0.9999 -5.5314
v  10.3394 1.0224 -5.5314
v  10.3394 1.3107 -5.5314
v  10.3394 1.3332 -5.5314
v  10.3394 1.3557 -5.5314
v  9.3535 0.9774 -5.2319
v  9.3535 0.6891 -5.2319
v  10.3394 1.3557 -5.2319
v  10.3394 1.3332 -5.2319
v  10.3394 1.3107 -5.2319
v  10.3394 1.0224 -5.2319
v  10.3394 0.9999 -5.2319
v  10.3394 0.6666 -5.2319
v  10.3394 0.6441 -5.2319
v  10.3394 0.3558 -5.2319
v  10.3394 0.3333 -5.2319
v  10.3394 0.3108 -5.2319
v  9.3535 0.3108 -5.2319
v  9.3535 0.3333 -5.2319
v  9.3535 0.3558 -5.2319
v  9.3535 0.6441 -5.2319
v  9.3535 0.6666 -5.2319
v  9.3535 0.9999 -5.2319
v  9.3535 1.0224 -5.2319
v  9.3535 1.3107 -5.2319
v  9.3535 1.3332 -5.2319
v  9.3535 1.3557 -5.2319
# 68 vertices

vn -0.5791 -0.5802 0.5727
vn -0.5756 -0.5744 -0.5820
vn 0.5756 -0.5744 -0.5820
vn 0.5791 -0.5802 0.5727
vn -0.5788 0.5788 0.5745
vn 0.5788 0.5788 0.5745
vn 0.5759 0.5759 -0.5802
vn -0.5759 0.5759 -0.5802
vn 0.7084 -0.0019 0.7058
vn 0.7058 0.0019 -0.7084
vn -0.7058 0.0019 -0.7084
vn -0.7084 -0.0019 0.7058
vn -0.5774 0.5774 0.5774
vn 0.5774 0.5774 0.5774
vn 0.3015 0.3015 0.9045
vn -0.3015 0.3015 0.9045
vn -0.5774 -0.5774 0.5774
vn -0.3015 -0.3015 0.9045
vn 0.3015 -0.3015 0.9045
vn 0.5774 -0.5774 0.5774
vn -0.7071 0.0000 0.7071
vn 0.7071 0.0000 0.7071
# 22 vertex normals

vt 1.0000 0.0000 0.0000
vt 1.0000 1.0000 0.0000
vt 0.0000 1.0000 0.0000
vt 0.0000 0.0000 0.0000
vt 1.0000 0.5865 0.0000
vt 1.0000 0.4135 0.0000
vt 0.0000 0.4135 0.0000
vt 0.0000 0.5865 0.0000
vt 1.0000 0.8135 0.0000
vt 1.0000 0.8000 0.0000
vt 1.0000 0.7865 0.0000
vt 1.0000 0.6135 0.0000
vt 1.0000 0.6000 0.0000
vt 1.0000 0.4000 0.0000
vt 1.0000 0.3865 0.0000
vt 1.0000 0.2135 0.0000
vt 1.0000 0.2000 0.0000
vt 1.0000 0.1865 0.0000
vt 0.0000 0.1865 0.0000
vt 0.0000 0.2000 0.0000
vt 0.0000 0.2135 0.0000
vt 0.0000 0.3865 0.0000
vt 0.0000 0.4000 0.0000
vt 0.0000 0.6000 0.0000
vt 0.0000 0.6135 0.0000
vt 0.0000 0.7865 0.0000
vt 0.0000 0.8000 0.0000
vt 0.0000 0.8135 0.0000
# 28 texture coords

o bookself
g bookself
usemtl Bookself
s 1
f 1/1/1 2/2/2 3/3/3 4/4/4 
f 5/4/5 6/1/6 7/2/7 8/3/8 
s 2
f 9/4/9 10/1/10 7/2/7 6/3/6 
s 4
f 10/4/10 11/1/11 8/2/8 7/3/7 
s 2
f 11/4/11 12/1/12 5/2/5 8/3/8 
s 1
f 13/3/13 14/2/14 15/1/15 16/4/16 
f 17/2/17 18/1/18 19/4/19 20/3/20 
s 2
f 21/5/21 22/6/13 23/7/16 24/8/21 
s 4
f 20/2/20 25/9/14 26/10/20 27/11/22 28/12/14 29/13/20 30/5/22 31/6/14 32/14/20 33/15/22 34/16/14 35/17/20 36/18/22 14/1/14 13/4/13 37/19/21 38/20/17 39/21/13 40/22/21 41/23/17 22/7/13 21/8/21 42/24/17 43/25/13 44/26/21 45/27/17 46/28/13 17/3/17 
s 2
f 47/5/22 48/6/15 31/7/14 30/8/22 
s 4
f 12/1/12 9/4/9 16/4/16 15/1/15 
f 6/1/6 5/4/5 19/4/19 18/1/18 
f 9/4/9 6/3/6 18/3/18 49/28/16 50/27/18 51/26/21 52/25/16 53/24/18 24/8/21 23/7/16 54/23/18 55/22/21 56/21/16 57/20/18 58/19/21 16/4/16 
f 5/2/5 12/1/12 15/1/15 59/18/22 60/17/19 61/16/15 62/15/22 63/14/19 48/6/15 47/5/22 64/13/19 65/12/15 66/11/22 67/10/19 68/9/15 19/2/19 
s 2
f 12/1/12 11/2/11 2/2/2 1/1/1 
s 4
f 11/2/11 10/3/10 3/3/3 2/2/2 
s 2
f 10/3/10 9/4/9 4/4/4 3/3/3 
s 4
f 9/4/9 12/1/12 1/1/1 4/4/4 
s 2
f 37/18/21 13/1/13 16/4/16 58/19/21 
f 40/15/21 39/16/13 56/21/16 55/22/21 
f 49/28/16 18/3/18 17/2/17 46/9/13 
f 52/25/16 51/26/21 44/11/21 43/12/13 
f 21/5/21 24/8/21 53/24/18 42/13/17 
f 37/18/21 58/19/21 57/20/18 38/17/17 
f 40/15/21 55/22/21 54/23/18 41/14/17 
f 44/11/21 51/26/21 50/27/18 45/10/17 
f 59/18/22 15/1/15 14/4/14 36/19/22 
f 62/15/22 61/16/15 34/21/14 33/22/22 
f 25/28/14 20/3/20 19/2/19 68/9/15 
f 28/25/14 27/26/22 66/11/22 65/12/15 
f 47/5/22 30/8/22 29/24/20 64/13/19 
f 59/18/22 36/19/22 35/20/20 60/17/19 
f 62/15/22 33/22/22 32/23/20 63/14/19 
f 66/11/22 27/26/22 26/27/20 67/10/19 
s 1
f 46/28/13 45/27/17 26/10/20 25/9/14 
s 8
f 45/10/17 50/27/18 67/10/19 26/27/20 
s 1
f 50/27/18 49/28/16 68/9/15 67/10/19 
s 8
f 49/28/16 46/9/13 25/28/14 68/9/15 
s 1
f 43/25/13 42/24/17 29/13/20 28/12/14 
s 8
f 42/13/17 53/24/18 64/13/19 29/24/20 
s 1
f 53/24/18 52/25/16 65/12/15 64/13/19 
s 8
f 52/25/16 43/12/13 28/25/14 65/12/15 
s 1
f 22/7/13 41/23/17 32/14/20 31/6/14 
s 8
f 41/14/17 54/23/18 63/14/19 32/23/20 
s 1
f 54/23/18 23/7/16 48/6/15 63/14/19 
s 8
f 23/7/16 22/6/13 31/7/14 48/6/15 
s 1
f 39/21/13 38/20/17 35/17/20 34/16/14 
s 8
f 38/17/17 57/20/18 60/17/19 35/20/20 
s 1
f 57/20/18 56/21/16 61/16/15 60/17/19 
s 8
f 56/21/16 39/16/13 34/21/14 61/16/15 
# 50 polygons

