# 3ds Max Wavefront OBJ Exporter v0.99 - (c)2007 guruware
# File Created: 23.11.2023 16:55:34

mtllib DinningChair.mtl

#
# object dinning_room_chair
#

v  -20.1164 0.0000 8.4908
v  3.4839 0.0000 8.4908
v  3.4839 0.0000 33.8024
v  -20.1164 0.0000 33.8024
v  3.4839 5.1968 8.4908
v  -20.1164 5.1968 8.4908
v  -20.1164 5.1968 33.8024
v  3.4839 5.1968 33.8024
v  -20.1164 0.0000 42.0601
v  3.4839 0.0000 42.0601
v  3.4839 5.1968 42.0601
v  -20.1164 5.1968 42.0601
v  11.1833 0.0000 33.8024
v  11.1833 0.0000 8.4908
v  11.1833 5.1968 8.4908
v  11.1833 5.1968 33.8024
v  3.4839 0.0000 0.2331
v  -20.1164 0.0000 0.2331
v  -20.1164 5.1968 0.2331
v  3.4839 5.1968 0.2331
v  -27.8158 0.0000 8.4908
v  -27.8158 0.0000 33.8024
v  -27.8158 5.1968 33.8024
v  -27.8158 5.1968 8.4908
v  11.1833 0.0000 0.2331
v  11.1833 5.1968 0.2331
v  11.1833 5.1968 42.0601
v  11.1833 0.0000 42.0601
v  -27.8158 0.0000 42.0601
v  -27.8158 5.1968 42.0601
v  -27.8158 5.1968 0.2331
v  -27.8158 0.0000 0.2331
v  3.4839 -43.6815 0.2331
v  11.1833 -43.6815 0.2331
v  11.1833 -43.6815 8.4908
v  3.4839 -43.6815 8.4908
v  -20.1164 -43.6815 8.4908
v  -27.8158 -43.6815 8.4908
v  -27.8158 -43.6815 0.2331
v  -20.1164 -43.6815 0.2331
v  -20.1164 -43.6815 42.0601
v  -27.8158 -43.6815 42.0601
v  -27.8158 -43.6815 33.8024
v  -20.1164 -43.6815 33.8024
v  3.4839 -43.6815 33.8024
v  11.1833 -43.6815 33.8024
v  11.1833 -43.6815 42.0601
v  3.4839 -43.6815 42.0601
v  3.4839 48.8783 42.0601
v  11.1833 48.8783 42.0601
v  11.1833 48.8783 33.8024
v  3.4839 48.8783 33.8024
v  -20.1164 48.8783 33.8024
v  -27.8158 48.8783 33.8024
v  -27.8158 48.8783 42.0601
v  -20.1164 48.8783 42.0601
v  3.4839 15.5114 33.8024
v  3.4839 18.5114 33.8024
v  3.4839 21.5114 33.8024
v  3.4839 24.6793 33.8024
v  3.4839 27.6793 33.8024
v  3.4839 30.6793 33.8024
v  3.4839 33.8472 33.8024
v  3.4839 36.8472 33.8024
v  3.4839 39.8472 33.8024
v  3.4839 43.0151 33.8024
v  3.4839 45.9809 33.8024
v  3.4839 45.9809 42.0601
v  3.4839 43.0151 42.0601
v  3.4839 39.8472 42.0601
v  3.4839 36.8472 42.0601
v  3.4839 33.8472 42.0601
v  3.4839 30.6793 42.0601
v  3.4839 27.6793 42.0601
v  3.4839 24.6793 42.0601
v  3.4839 21.5114 42.0601
v  3.4839 18.5114 42.0601
v  3.4839 15.5114 42.0601
v  -20.1164 15.5114 42.0601
v  -20.1164 18.5114 42.0601
v  -20.1164 21.5114 42.0601
v  -20.1164 24.6793 42.0601
v  -20.1164 27.6793 42.0601
v  -20.1164 30.6793 42.0601
v  -20.1164 33.8472 42.0601
v  -20.1164 36.8472 42.0601
v  -20.1164 39.8472 42.0601
v  -20.1164 43.0151 42.0601
v  -20.1164 45.9809 42.0601
v  -20.1164 45.9809 33.8024
v  -20.1164 43.0151 33.8024
v  -20.1164 39.8472 33.8024
v  -20.1164 36.8472 33.8024
v  -20.1164 33.8472 33.8024
v  -20.1164 30.6793 33.8024
v  -20.1164 27.6793 33.8024
v  -20.1164 24.6793 33.8024
v  -20.1164 21.5114 33.8024
v  -20.1164 18.5114 33.8024
v  -20.1164 15.5114 33.8024
# 100 vertices

vn 0.3015 -0.9045 0.3015
vn -0.3015 -0.9045 0.3015
vn -0.3015 -0.9045 -0.3015
vn 0.3015 -0.9045 -0.3015
vn 0.0000 1.0000 -0.0000
vn 0.3015 0.9045 -0.3015
vn -0.3015 0.9045 -0.3015
vn 0.3015 -0.3015 0.9045
vn -0.3015 -0.3015 0.9045
vn -0.3015 0.3015 0.9045
vn 0.3015 0.3015 0.9045
vn 0.9045 -0.3015 -0.3015
vn 0.9045 -0.3015 0.3015
vn 0.7071 0.7071 -0.0000
vn 0.9045 0.3015 -0.3015
vn -0.3015 -0.3015 -0.9045
vn 0.3015 -0.3015 -0.9045
vn 0.0000 0.7071 -0.7071
vn -0.9045 -0.3015 0.3015
vn -0.9045 -0.3015 -0.3015
vn -0.9045 0.3015 -0.3015
vn -0.7071 0.7071 -0.0000
vn 0.7071 0.0000 -0.7071
vn 0.5774 0.5774 -0.5774
vn 0.7071 0.0000 0.7071
vn -0.7071 0.0000 0.7071
vn -0.5774 0.5774 -0.5774
vn -0.7071 0.0000 -0.7071
vn -0.5774 -0.5774 -0.5774
vn 0.5774 -0.5774 -0.5774
vn 0.5774 -0.5774 0.5774
vn -0.5774 -0.5774 0.5774
vn 1.0000 0.0000 -0.0000
vn 0.5774 0.5774 0.5774
vn -0.0000 0.7071 -0.7071
vn -0.5774 0.5774 0.5774
vn 0.0000 0.7071 0.7071
vn 0.0000 0.0000 -1.0000
vn -0.3015 0.3015 -0.9045
vn -0.0000 0.0000 1.0000
vn 0.0000 0.0000 1.0000
vn -0.0000 0.0000 -1.0000
vn 0.3015 0.3015 -0.9045
vn 0.0000 -1.0000 -0.0000
# 44 vertex normals

vt 0.8026 0.8026 0.0000
vt 0.1974 0.8026 0.0000
vt 0.1974 0.1974 0.0000
vt 0.8026 0.1974 0.0000
vt 0.1974 0.0000 0.0000
vt 0.8026 0.0000 0.0000
vt 0.8026 1.0000 0.0000
vt 0.1974 1.0000 0.0000
vt 1.0000 0.0000 0.0000
vt 1.0000 1.0000 0.0000
vt 0.0000 1.0000 0.0000
vt 0.0000 0.0000 0.0000
vt 0.0000 0.8026 0.0000
vt 0.0000 0.1974 0.0000
vt 1.0000 0.1974 0.0000
vt 1.0000 0.8026 0.0000
# 16 texture coords

o dinning_room_chair
g dinning_room_chair
usemtl DinningChair
s 1
f 1/1/1 2/2/2 3/3/3 4/4/4 
f 5/1/5 6/2/5 7/3/6 8/4/7 
s 2
f 9/5/8 10/6/9 11/7/10 12/8/11 
s 4
f 13/5/12 14/6/13 15/7/14 16/8/15 
s 2
f 17/5/16 18/6/17 19/7/18 20/8/18 
s 4
f 21/5/19 22/6/20 23/7/21 24/8/22 
s 1
f 18/7/17 17/8/16 2/2/2 1/1/1 
f 10/5/9 9/6/8 4/4/4 3/3/3 
f 20/7/18 19/8/18 6/2/5 5/1/5 
f 12/5/11 11/6/10 8/4/7 7/3/6 
s 4
f 14/6/13 25/9/23 26/10/24 15/7/14 
f 16/8/15 27/11/25 28/12/25 13/5/12 
f 22/6/20 29/9/26 30/10/26 23/7/21 
f 24/8/22 31/11/27 32/12/28 21/5/19 
s 1
f 2/2/2 14/13/13 13/14/12 3/3/3 
f 4/4/4 22/15/20 21/16/19 1/1/1 
f 6/2/5 24/13/22 23/14/21 7/3/6 
f 8/4/7 16/15/15 15/16/14 5/1/5 
s 2
f 10/6/9 28/9/25 27/10/25 11/7/10 
f 12/8/11 30/11/26 29/12/26 9/5/8 
f 18/6/17 32/9/28 31/10/27 19/7/18 
f 20/8/18 26/11/24 25/12/23 17/5/16 
s 1
f 33/8/29 34/11/30 35/13/31 36/2/32 
f 37/1/31 38/16/32 39/10/29 40/7/30 
f 41/6/31 42/9/32 43/15/29 44/4/30 
f 45/3/29 46/14/30 47/12/31 48/5/32 
f 19/8/18 31/11/27 24/13/22 6/2/5 
f 5/1/5 15/16/14 26/10/24 20/7/18 
f 49/6/33 50/9/34 51/15/24 52/4/33 
f 53/3/35 54/14/27 55/12/36 56/5/37 
s 4
f 25/11/23 14/13/13 35/13/31 34/11/30 
s 2
f 14/13/13 2/2/2 36/2/32 35/13/31 
s 4
f 2/2/2 17/8/16 33/8/29 36/2/32 
s 2
f 17/8/16 25/11/23 34/11/30 33/8/29 
f 32/10/28 18/7/17 40/7/30 39/10/29 
s 4
f 18/7/17 1/1/1 37/1/31 40/7/30 
s 2
f 1/1/1 21/16/19 38/16/32 37/1/31 
s 4
f 21/16/19 32/10/28 39/10/29 38/16/32 
f 29/9/26 22/15/20 43/15/29 42/9/32 
s 2
f 22/15/20 4/4/4 44/4/30 43/15/29 
s 4
f 4/4/4 9/6/8 41/6/31 44/4/30 
s 2
f 9/6/8 29/9/26 42/9/32 41/6/31 
f 28/12/25 10/5/9 48/5/32 47/12/31 
s 4
f 10/5/9 3/3/3 45/3/29 48/5/32 
s 2
f 3/3/3 13/14/12 46/14/30 45/3/29 
s 4
f 13/14/12 28/12/25 47/12/31 46/14/30 
f 27/9/25 16/15/15 51/15/24 50/9/34 
s 2
f 16/15/15 8/4/7 57/4/28 58/4/16 59/4/38 60/4/39 61/4/28 62/4/16 63/4/38 64/4/39 65/4/28 66/4/16 67/4/38 52/4/18 52/4/33 51/15/24 
f 11/6/10 27/9/25 50/9/34 49/6/33 49/6/37 68/6/40 69/6/9 70/6/26 71/6/10 72/6/40 73/6/9 74/6/26 75/6/10 76/6/40 77/6/9 78/6/26 
f 30/12/26 12/5/11 79/5/25 80/5/8 81/5/41 82/5/11 83/5/25 84/5/8 85/5/41 86/5/11 87/5/25 88/5/8 89/5/41 56/5/33 56/5/37 55/12/36 
f 7/3/6 23/14/21 54/14/27 53/3/35 53/3/33 90/3/42 91/3/17 92/3/23 93/3/43 94/3/42 95/3/17 96/3/23 97/3/43 98/3/42 99/3/17 100/3/23 
s 4
f 23/14/21 30/12/26 55/12/36 54/14/27 
s 1
f 8/4/44 11/6/44 12/5/44 7/3/44 
f 12/5/5 11/6/5 8/4/5 7/3/5 
s 4
f 79/5/25 12/5/11 7/3/6 100/3/23 
s 8
f 53/3/33 53/3/35 56/5/37 56/5/33 
s 4
f 92/3/23 91/3/17 88/5/8 87/5/25 
f 95/3/17 84/5/8 83/5/25 96/3/23 
f 79/5/25 100/3/23 99/3/17 80/5/8 
f 82/5/11 97/3/43 96/3/23 83/5/25 
f 92/3/23 87/5/25 86/5/11 93/3/43 
s 8
f 49/6/37 49/6/33 52/4/33 52/4/18 
s 4
f 70/6/26 69/6/9 66/4/16 65/4/28 
f 57/4/28 8/4/7 11/6/10 78/6/26 
f 73/6/9 62/4/16 61/4/28 74/6/26 
f 70/6/26 65/4/28 64/4/39 71/6/10 
f 57/4/28 78/6/26 77/6/9 58/4/16 
f 60/4/39 75/6/10 74/6/26 61/4/28 
s 1
f 56/5/33 89/5/41 68/6/40 49/6/37 
s 16
f 89/5/41 90/3/42 67/4/38 68/6/40 
s 1
f 90/3/42 53/3/33 52/4/18 67/4/38 
s 16
f 53/3/33 56/5/33 49/6/37 52/4/18 
s 8
f 89/5/41 88/5/8 69/6/9 68/6/40 
s 32
f 88/5/8 91/3/17 66/4/16 69/6/9 
s 8
f 91/3/17 90/3/42 67/4/38 66/4/16 
s 32
f 90/3/42 89/5/41 68/6/40 67/4/38 
s 1
f 86/5/11 85/5/41 72/6/40 71/6/10 
s 8
f 85/5/41 94/3/42 63/4/38 72/6/40 
s 1
f 94/3/42 93/3/43 64/4/39 63/4/38 
s 8
f 93/3/43 86/5/11 71/6/10 64/4/39 
s 16
f 63/4/38 62/4/16 95/3/17 94/3/42 
s 32
f 62/4/16 73/6/9 84/5/8 95/3/17 
s 16
f 73/6/9 72/6/40 85/5/41 84/5/8 
s 32
f 72/6/40 63/4/38 94/3/42 85/5/41 
s 1
f 81/5/41 80/5/8 77/6/9 76/6/40 
s 8
f 80/5/8 99/3/17 58/4/16 77/6/9 
s 1
f 99/3/17 98/3/42 59/4/38 58/4/16 
f 98/3/42 97/3/43 60/4/39 59/4/38 
s 8
f 97/3/43 82/5/11 75/6/10 60/4/39 
s 1
f 82/5/11 81/5/41 76/6/40 75/6/10 
# 90 polygons

